<?xml version="1.0" standalone="no"?>
<!DOCTYPE svg PUBLIC "-//W3C//DTD SVG 20010904//EN"
 "http://www.w3.org/TR/2001/REC-SVG-20010904/DTD/svg10.dtd">
<svg version="1.0" xmlns="http://www.w3.org/2000/svg"
 width="800.000000pt" height="500.000000pt" viewBox="0 0 800.000000 500.000000"
 preserveAspectRatio="xMidYMid meet">

<g transform="translate(0.000000,500.000000) scale(0.100000,-0.100000)"
fill="#000000" stroke="none">
<path d="M1638 4734 c-15 -8 -32 -23 -38 -34 -6 -12 -10 -150 -10 -374 0 -272
-4 -378 -16 -453 -23 -149 -33 -185 -61 -226 -22 -31 -27 -52 -30 -120 -3 -50
-12 -100 -24 -129 -24 -60 -24 -100 1 -123 11 -10 20 -24 20 -32 0 -7 5 -13
11 -13 6 0 8 9 3 23 -10 32 -12 117 -2 111 4 -3 8 5 8 18 1 25 34 54 78 68
128 41 155 55 159 82 2 19 -6 41 -27 69 -16 23 -35 59 -40 80 -7 24 -15 36
-23 33 -29 -11 -64 104 -37 121 24 15 50 -7 56 -45 8 -49 24 -42 24 9 0 42 4
45 100 81 30 12 70 30 89 41 l33 20 42 -38 c43 -38 50 -52 61 -116 3 -21 10
-35 15 -32 5 3 7 12 3 20 -3 8 -2 23 1 32 6 15 8 15 16 3 6 -8 10 -26 11 -40
1 -21 2 -20 11 10 16 55 3 146 -29 209 -21 41 -41 63 -77 86 -44 27 -58 30
-130 30 -45 0 -89 -2 -99 -5 -17 -5 -18 8 -17 225 0 206 2 233 19 255 10 13
29 28 42 31 44 13 4472 10 4508 -2 55 -19 61 -44 61 -274 0 -211 -2 -219 -39
-196 -10 6 -25 4 -43 -5 -31 -16 -35 -38 -16 -91 10 -28 9 -38 -5 -63 -14 -23
-16 -34 -7 -51 7 -13 9 -40 5 -70 -6 -41 -4 -50 10 -55 24 -9 35 12 35 68 0
36 4 50 19 58 11 5 81 10 155 10 148 0 141 3 136 -58 -3 -36 20 -83 39 -80 22
4 51 141 32 152 -6 4 -11 27 -11 52 0 71 -11 84 -68 77 -43 -5 -51 -2 -80 25
l-32 30 0 267 c0 295 -4 314 -63 335 -20 7 -798 10 -2391 10 -2064 -1 -2364
-3 -2388 -16z"/>
<path d="M5746 4527 c-14 -10 -17 -21 -12 -41 5 -22 12 -27 33 -24 34 4 52 31
37 56 -15 22 -35 26 -58 9z"/>
<path d="M6115 4520 c3 -5 11 -10 16 -10 6 0 7 5 4 10 -3 6 -11 10 -16 10 -6
0 -7 -4 -4 -10z"/>
<path d="M6075 4510 c-9 -15 4 -30 20 -23 8 3 15 9 15 13 0 12 -29 20 -35 10z"/>
<path d="M1042 4480 c0 -19 2 -27 5 -17 2 9 2 25 0 35 -3 9 -5 1 -5 -18z"/>
<path d="M983 4433 c9 -2 25 -2 35 0 9 3 1 5 -18 5 -19 0 -27 -2 -17 -5z"/>
<path d="M1073 4433 c9 -2 25 -2 35 0 9 3 1 5 -18 5 -19 0 -27 -2 -17 -5z"/>
<path d="M1042 4385 c0 -16 2 -22 5 -12 2 9 2 23 0 30 -3 6 -5 -1 -5 -18z"/>
<path d="M3148 4350 c-122 -22 -239 -77 -337 -159 l-48 -40 -114 -3 -114 -3
-3 -27 c-2 -20 4 -32 27 -49 26 -19 31 -29 31 -66 0 -25 4 -42 9 -38 16 10 21
-12 10 -44 -11 -31 -11 -31 -84 -31 l-74 0 -195 -269 c-129 -178 -194 -275
-190 -285 5 -14 43 -16 304 -16 l298 0 21 -36 c12 -19 21 -36 21 -37 0 -3
-593 3 -595 6 -1 1 -10 13 -19 27 l-18 25 7 -25 c4 -14 14 -32 21 -40 7 -8 22
-25 34 -37 11 -13 20 -29 20 -37 0 -22 88 -29 291 -24 98 3 180 1 181 -3 2 -5
23 11 48 34 l45 42 26 -27 c15 -15 24 -29 21 -32 -3 -4 1 -6 9 -6 9 0 24 -8
35 -18 10 -9 41 -33 67 -52 l48 -35 1 -272 c0 -150 -2 -273 -6 -273 -3 0 -9 0
-13 0 -5 0 -1 5 7 10 12 7 10 9 -8 7 -12 -1 -21 -6 -18 -12 2 -6 9 -37 16 -70
10 -47 14 -56 21 -40 6 17 8 17 8 3 1 -10 4 -18 7 -18 11 0 94 61 94 70 0 5 8
11 18 15 9 3 31 17 47 31 l30 26 -47 -26 -47 -25 0 269 c1 246 2 268 17 263
10 -3 23 -11 30 -16 13 -10 112 -13 422 -9 123 1 196 -2 198 -8 5 -13 49 -13
57 0 4 6 2 16 -3 23 -8 11 -10 26 -13 95 -2 31 7 92 14 98 4 4 10 4 14 0 4 -4
1 -11 -7 -16 -8 -6 -10 -10 -5 -10 19 0 38 18 31 29 -9 14 23 63 37 54 6 -3 7
-1 3 6 -4 6 6 30 21 54 16 23 35 56 42 74 l13 31 25 -21 c14 -12 29 -33 34
-46 l10 -24 242 6 c133 3 352 6 486 6 l243 0 -35 48 c-33 46 -88 125 -187 268
l-45 65 -125 0 c-69 0 -131 4 -138 9 -10 6 -14 33 -15 87 l-2 79 -245 3 -245
4 -42 86 c-84 174 -245 306 -435 358 -66 18 -227 26 -290 14z m257 -116 c186
-44 345 -191 406 -375 27 -80 36 -239 19 -318 -16 -75 -70 -185 -119 -244
-176 -211 -476 -270 -721 -141 -149 78 -240 194 -290 369 -36 127 -18 291 47
424 33 65 147 185 215 225 133 78 283 98 443 60z m305 -1154 l0 -60 -95 0
c-52 0 -95 2 -95 5 0 3 24 17 53 31 30 13 69 38 88 54 19 16 37 29 42 30 4 0
7 -27 7 -60z m50 -100 c0 -5 -7 -10 -16 -10 -8 0 -12 5 -9 10 3 6 10 10 16 10
5 0 9 -4 9 -10z"/>
<path d="M1119 4138 c-7 -25 -7 -48 1 -53 6 -4 10 7 10 24 0 17 -2 31 -5 31
-3 0 -5 -1 -6 -2z"/>
<path d="M1050 4068 c0 -4 14 -8 30 -8 17 0 30 2 30 4 0 2 -13 6 -30 8 -16 3
-30 1 -30 -4z"/>
<path d="M1150 4070 c-11 -7 -7 -10 18 -10 20 0 31 4 27 10 -8 13 -26 13 -45
0z"/>
<path d="M7150 4055 c0 -14 5 -25 10 -25 6 0 10 11 10 25 0 14 -4 25 -10 25
-5 0 -10 -11 -10 -25z"/>
<path d="M1115 4038 c-4 -10 -4 -26 0 -35 8 -17 8 -17 12 0 3 9 3 25 0 35 -4
16 -4 16 -12 0z"/>
<path d="M7095 4010 c-4 -6 7 -10 24 -10 17 0 31 5 31 10 0 6 -11 10 -24 10
-14 0 -28 -4 -31 -10z"/>
<path d="M7170 4010 c0 -5 14 -10 31 -10 17 0 28 4 24 10 -3 6 -17 10 -31 10
-13 0 -24 -4 -24 -10z"/>
<path d="M7150 3965 c0 -14 5 -25 10 -25 6 0 10 11 10 25 0 14 -4 25 -10 25
-5 0 -10 -11 -10 -25z"/>
<path d="M1286 3964 c-9 -8 -16 -31 -16 -49 0 -28 6 -37 30 -50 27 -14 33 -14
59 -1 46 24 54 63 19 96 -26 24 -70 26 -92 4z m75 -4 c22 -12 26 -59 7 -78
-17 -17 -48 -15 -70 5 -22 20 -23 32 -2 61 17 24 35 28 65 12z"/>
<path d="M5228 3934 c-28 -15 -56 -54 -40 -54 5 0 20 8 33 19 13 10 38 25 54
34 30 16 30 16 5 16 -14 0 -37 -6 -52 -15z"/>
<path d="M2591 3924 c0 -11 3 -14 6 -6 3 7 2 16 -1 19 -3 4 -6 -2 -5 -13z"/>
<path d="M1735 3841 c-3 -6 12 -9 35 -8 22 1 40 5 40 9 0 11 -68 10 -75 -1z"/>
<path d="M1900 3840 c0 -5 19 -10 43 -9 32 0 37 2 22 9 -28 12 -65 12 -65 0z"/>
<path d="M6320 3827 c0 -9 12 -11 40 -9 22 2 40 8 40 13 0 5 -18 9 -40 9 -26
0 -40 -5 -40 -13z"/>
<path d="M6500 3830 c0 -5 11 -10 24 -10 13 0 31 -3 40 -6 11 -4 16 -1 16 10
0 12 -10 16 -40 16 -22 0 -40 -4 -40 -10z"/>
<path d="M1765 3800 c-7 -12 2 -30 16 -30 5 0 9 9 9 20 0 21 -15 27 -25 10z"/>
<path d="M1914 3796 c-4 -10 -2 -22 4 -28 8 -8 13 -7 18 6 4 10 2 22 -4 28 -8
8 -13 7 -18 -6z"/>
<path d="M6250 3757 c0 -20 -6 -38 -12 -40 -9 -4 -7 -6 3 -6 10 -1 21 -17 29
-43 16 -55 44 -111 64 -127 9 -8 16 -29 16 -50 0 -26 3 -32 9 -21 6 8 8 17 5
22 -3 4 24 5 59 1 55 -5 70 -2 103 16 46 26 78 68 102 138 10 28 25 59 33 69
10 13 11 16 1 10 -11 -6 -13 -1 -10 25 5 55 -17 42 -37 -22 l-20 -62 -148 -1
c-165 -1 -147 -10 -165 78 -10 52 -32 60 -32 13z m288 -129 c21 -21 13 -45
-20 -59 -69 -29 -168 -5 -168 40 0 24 16 28 106 30 42 1 75 -4 82 -11z"/>
<path d="M6350 3760 c0 -11 5 -20 10 -20 6 0 10 9 10 20 0 11 -4 20 -10 20 -5
0 -10 -9 -10 -20z"/>
<path d="M6510 3760 c0 -11 5 -20 10 -20 6 0 10 9 10 20 0 11 -4 20 -10 20 -5
0 -10 -9 -10 -20z"/>
<path d="M2040 3715 c-7 -14 -19 -25 -25 -25 -6 0 -19 -18 -29 -39 -9 -22 -32
-53 -51 -70 -27 -23 -35 -38 -35 -64 0 -31 3 -34 48 -47 26 -8 52 -16 58 -17
7 -3 13 24 18 74 3 43 13 107 21 142 17 70 15 84 -5 46z"/>
<path d="M7073 3685 c0 -14 3 -25 8 -25 5 0 9 11 9 25 0 14 -4 25 -9 25 -5 0
-8 -11 -8 -25z"/>
<path d="M7010 3640 c0 -5 14 -10 30 -10 17 0 30 5 30 10 0 6 -13 10 -30 10
-16 0 -30 -4 -30 -10z"/>
<path d="M7100 3640 c0 -5 11 -10 25 -10 14 0 25 5 25 10 0 6 -11 10 -25 10
-14 0 -25 -4 -25 -10z"/>
<path d="M7070 3596 c0 -14 5 -28 10 -31 6 -4 10 7 10 24 0 17 -4 31 -10 31
-5 0 -10 -11 -10 -24z"/>
<path d="M5305 3580 c3 -5 8 -10 11 -10 2 0 4 5 4 10 0 6 -5 10 -11 10 -5 0
-7 -4 -4 -10z"/>
<path d="M5270 3570 c0 -5 5 -10 10 -10 6 0 10 -4 10 -10 0 -5 -6 -7 -14 -4
-14 5 -49 -50 -38 -61 3 -3 12 9 19 27 9 21 17 28 21 21 6 -9 11 -7 19 6 9 14
7 20 -8 29 -12 8 -19 8 -19 2z"/>
<path d="M6836 3539 c-51 -40 -23 -109 46 -109 29 0 58 31 58 63 0 21 -43 67
-63 67 -8 0 -26 -9 -41 -21z m72 -11 c7 -7 12 -24 12 -38 0 -32 -17 -50 -46
-50 -24 0 -38 14 -48 46 -12 41 51 73 82 42z"/>
<path d="M1548 3392 c9 -10 19 -14 21 -9 2 5 -3 13 -10 18 -24 15 -30 10 -11
-9z"/>
<path d="M2041 3374 c0 -11 3 -14 6 -6 3 7 2 16 -1 19 -3 4 -6 -2 -5 -13z"/>
<path d="M1582 3343 c9 -10 18 -27 21 -38 4 -17 5 -18 6 -2 1 24 -17 57 -31
57 -7 0 -5 -7 4 -17z"/>
<path d="M2040 3332 c0 -5 7 -17 15 -28 15 -19 20 -8 9 20 -6 17 -24 22 -24 8z"/>
<path d="M3883 3326 c-16 -19 -4 -29 13 -11 8 7 14 16 14 19 0 10 -15 6 -27
-8z"/>
<path d="M1502 3290 c0 -14 2 -19 5 -12 2 6 2 18 0 25 -3 6 -5 1 -5 -13z"/>
<path d="M3910 3289 c0 -11 4 -18 10 -14 5 3 7 12 3 20 -7 21 -13 19 -13 -6z"/>
<path d="M3960 3299 c0 -5 5 -7 10 -4 6 3 10 8 10 11 0 2 -4 4 -10 4 -5 0 -10
-5 -10 -11z"/>
<path d="M3955 3270 c-3 -5 -2 -10 4 -10 5 0 13 5 16 10 3 6 2 10 -4 10 -5 0
-13 -4 -16 -10z"/>
<path d="M1608 3260 c-6 -18 13 -100 23 -100 8 0 1 61 -11 95 -5 14 -8 15 -12
5z"/>
<path d="M3978 3165 c2 -47 7 -85 10 -85 9 0 82 49 100 67 7 7 18 13 24 13 10
0 128 80 128 86 0 2 -60 4 -132 4 l-133 0 3 -85z"/>
<path d="M6071 3214 c0 -11 3 -14 6 -6 3 7 2 16 -1 19 -3 4 -6 -2 -5 -13z"/>
<path d="M2080 3199 c0 -11 4 -18 10 -14 5 3 7 12 3 20 -7 21 -13 19 -13 -6z"/>
<path d="M6038 3183 c7 -3 16 -2 19 1 4 3 -2 6 -13 5 -11 0 -14 -3 -6 -6z"/>
<path d="M2726 3161 c-4 -5 3 -7 14 -4 23 6 26 13 6 13 -8 0 -17 -4 -20 -9z"/>
<path d="M2740 3131 c0 -6 5 -13 10 -16 6 -3 10 1 10 9 0 9 -4 16 -10 16 -5 0
-10 -4 -10 -9z"/>
<path d="M1630 3108 c0 -16 5 -28 10 -28 13 0 13 20 0 40 -8 12 -10 9 -10 -12z"/>
<path d="M2596 3115 c4 -8 7 -15 9 -15 2 0 5 7 9 15 3 9 0 15 -9 15 -9 0 -12
-6 -9 -15z"/>
<path d="M1496 3089 c-8 -42 0 -50 9 -9 4 17 5 34 2 36 -2 3 -7 -10 -11 -27z"/>
<path d="M2806 3105 c4 -8 12 -15 20 -15 20 0 17 7 -6 20 -16 9 -18 8 -14 -5z"/>
<path d="M2102 3080 c0 -19 2 -27 5 -17 2 9 2 25 0 35 -3 9 -5 1 -5 -18z"/>
<path d="M2142 3080 c0 -19 2 -27 5 -17 2 9 2 25 0 35 -3 9 -5 1 -5 -18z"/>
<path d="M2771 3084 c0 -11 3 -14 6 -6 3 7 2 16 -1 19 -3 4 -6 -2 -5 -13z"/>
<path d="M1545 3070 c-8 -13 3 -50 16 -50 12 0 12 47 0 55 -5 3 -12 1 -16 -5z"/>
<path d="M2365 3070 c3 -5 14 -10 23 -10 15 0 15 2 2 10 -20 13 -33 13 -25 0z"/>
<path d="M2248 3063 c7 -3 16 -2 19 1 4 3 -2 6 -13 5 -11 0 -14 -3 -6 -6z"/>
<path d="M3935 3060 c-3 -5 -1 -10 4 -10 6 0 11 5 11 10 0 6 -2 10 -4 10 -3 0
-8 -4 -11 -10z"/>
<path d="M2270 3045 c-17 -21 -3 -35 33 -35 36 -1 58 -14 75 -47 17 -31 15
-46 -4 -39 -15 6 -15 4 -3 -11 7 -10 14 -19 15 -21 0 -1 15 3 32 9 25 8 29 14
23 27 -5 9 -17 36 -26 60 -10 23 -24 42 -31 42 -7 0 -14 5 -16 10 -5 17 -85
21 -98 5z"/>
<path d="M2871 3044 c0 -11 3 -14 6 -6 3 7 2 16 -1 19 -3 4 -6 -2 -5 -13z"/>
<path d="M2900 3040 c0 -5 5 -10 11 -10 5 0 7 5 4 10 -3 6 -8 10 -11 10 -2 0
-4 -4 -4 -10z"/>
<path d="M2520 3032 c0 -5 -9 -19 -20 -32 -11 -13 -20 -27 -20 -32 0 -9 36 24
59 55 11 14 11 17 -3 17 -9 0 -16 -4 -16 -8z"/>
<path d="M2820 3015 c13 -14 24 -25 25 -25 1 0 0 11 -3 25 -3 17 -11 25 -25
25 -20 0 -20 -1 3 -25z"/>
<path d="M3870 3030 c0 -5 7 -7 15 -4 8 4 15 8 15 10 0 2 -7 4 -15 4 -8 0 -15
-4 -15 -10z"/>
<path d="M4263 2993 c-27 -35 -28 -40 -31 -184 -4 -164 -2 -169 63 -163 17 1
58 3 93 3 l62 1 0 158 c0 134 -3 160 -18 178 -24 31 -55 44 -101 44 -34 0 -44
-5 -68 -37z m146 -4 c28 -27 31 -37 31 -90 0 -49 -3 -59 -17 -60 -20 -1 -92
-1 -140 0 l-33 1 0 61 c0 54 3 64 29 90 41 40 89 40 130 -2z m26 -246 l0 -78
-92 -3 -91 -3 -4 77 c-2 51 1 78 9 82 6 4 49 6 95 5 l83 -1 0 -79z"/>
<path d="M4668 3020 c-9 -6 -26 -25 -37 -43 -18 -30 -20 -46 -17 -181 l3 -148
103 0 c56 0 104 3 107 6 3 3 5 30 5 61 0 30 -1 100 -1 154 -1 97 -2 100 -32
130 -24 25 -39 31 -72 31 -23 0 -50 -5 -59 -10z m108 -18 c32 -26 44 -55 44
-111 l0 -51 -47 -1 c-27 0 -67 0 -90 1 -27 1 -43 -3 -43 -10 0 -8 28 -11 88
-9 l87 2 0 -79 0 -79 -93 0 -93 0 0 135 c0 75 4 147 10 162 20 54 94 76 137
40z"/>
<path d="M1502 3000 c0 -14 2 -19 5 -12 2 6 2 18 0 25 -3 6 -5 1 -5 -13z"/>
<path d="M1652 2990 c0 -19 2 -27 5 -17 2 9 2 25 0 35 -3 9 -5 1 -5 -18z"/>
<path d="M2241 2994 c0 -11 3 -14 6 -6 3 7 2 16 -1 19 -3 4 -6 -2 -5 -13z"/>
<path d="M2267 2982 c-26 -28 -22 -52 4 -25 12 11 20 26 17 33 -2 7 -9 5 -21
-8z"/>
<path d="M2063 2951 c-8 -22 -8 -31 1 -34 7 -3 12 9 13 29 1 19 1 34 -1 34 -1
0 -7 -13 -13 -29z"/>
<path d="M3128 2963 c7 -3 16 -2 19 1 4 3 -2 6 -13 5 -11 0 -14 -3 -6 -6z"/>
<path d="M3498 2963 c34 -2 90 -2 125 0 34 2 6 3 -63 3 -69 0 -97 -1 -62 -3z"/>
<path d="M3780 2955 c-14 -8 -20 -14 -14 -15 5 0 19 7 30 15 24 18 16 19 -16
0z"/>
<path d="M2327 2939 c4 -13 8 -18 11 -10 2 7 -1 18 -6 23 -8 8 -9 4 -5 -13z"/>
<path d="M2844 2946 c7 -21 -23 -75 -53 -94 -19 -11 -21 -22 -21 -97 l0 -85
-77 -1 c-92 -2 -84 -2 -104 6 -10 4 -19 -3 -27 -20 -16 -35 -15 -38 8 -32 11
3 20 1 20 -5 0 -6 8 -7 18 -3 33 12 141 11 147 -2 2 -7 9 -13 16 -13 6 0 8 7
5 16 -4 11 -2 15 8 11 17 -7 37 14 37 40 1 10 0 57 -2 105 -2 82 0 89 26 123
26 35 27 38 10 53 -17 16 -17 16 -11 -2z"/>
<path d="M1660 2930 c0 -5 5 -10 11 -10 5 0 7 5 4 10 -3 6 -8 10 -11 10 -2 0
-4 -4 -4 -10z"/>
<path d="M3128 2933 c7 -3 16 -2 19 1 4 3 -2 6 -13 5 -11 0 -14 -3 -6 -6z"/>
<path d="M3228 2933 c17 -2 47 -2 65 0 17 2 3 4 -33 4 -36 0 -50 -2 -32 -4z"/>
<path d="M3718 2933 c7 -3 16 -2 19 1 4 3 -2 6 -13 5 -11 0 -14 -3 -6 -6z"/>
<path d="M3418 2923 c7 -3 16 -2 19 1 4 3 -2 6 -13 5 -11 0 -14 -3 -6 -6z"/>
<path d="M2180 2910 c0 -5 5 -10 10 -10 6 0 10 5 10 10 0 6 -4 10 -10 10 -5 0
-10 -4 -10 -10z"/>
<path d="M1520 2905 c0 -3 9 -24 19 -46 11 -22 17 -48 14 -57 -4 -12 -3 -14 5
-7 11 11 15 30 12 60 l-1 20 -8 -20 c-7 -17 -9 -16 -15 12 -6 28 -26 57 -26
38z"/>
<path d="M1591 2854 c0 -11 3 -14 6 -6 3 7 2 16 -1 19 -3 4 -6 -2 -5 -13z"/>
<path d="M2171 2848 c-5 -13 -5 -24 0 -26 14 -5 11 -40 -3 -45 -7 -3 -8 -6 -2
-6 7 -1 8 -18 4 -51 -4 -27 -3 -50 0 -50 4 0 6 -10 6 -22 -1 -13 5 -23 14 -24
8 0 28 -2 44 -2 28 -2 28 -3 13 -20 -10 -10 -17 -25 -17 -32 0 -7 -7 -21 -16
-31 -9 -10 -14 -24 -11 -32 8 -21 70 -47 111 -47 l37 0 -7 -37 c-5 -31 -4 -36
7 -26 11 11 15 8 26 -15 11 -24 12 -19 10 51 -1 42 1 77 6 77 4 0 5 -5 1 -12
-4 -7 -3 -8 4 -4 6 4 9 13 5 21 -3 8 0 15 6 15 6 0 11 -4 11 -10 0 -5 5 -10
11 -10 6 0 8 9 4 20 -4 14 2 30 18 50 14 16 26 27 28 25 3 -2 10 8 16 22 11
23 9 28 -20 55 -58 53 -127 99 -127 84 0 -8 6 -16 12 -18 9 -3 4 -16 -15 -41
-26 -35 -32 -37 -83 -37 l-54 0 0 75 c0 73 1 75 24 75 14 0 27 4 30 9 4 5 -4
7 -16 3 -14 -3 -19 -1 -14 6 4 8 2 10 -7 6 -8 -3 -17 2 -20 10 -9 23 -26 20
-36 -6z"/>
<path d="M2064 2836 c-3 -8 -4 -27 -2 -43 3 -23 5 -20 9 15 5 43 2 53 -7 28z"/>
<path d="M1690 2837 c0 -2 7 -18 16 -35 21 -44 35 -41 16 3 -9 19 -20 35 -24
35 -4 0 -8 -2 -8 -3z"/>
<path d="M2085 2830 c-4 -6 -3 -16 3 -22 6 -6 12 -6 17 2 4 6 3 16 -3 22 -6 6
-12 6 -17 -2z"/>
<path d="M2353 2825 c-7 -8 -13 -19 -13 -25 0 -19 17 -10 28 15 13 27 4 33
-15 10z"/>
<path d="M3430 2833 c50 -2 88 -9 93 -16 6 -8 7 -8 4 3 -3 12 -22 15 -93 16
l-89 0 85 -3z"/>
<path d="M3550 2805 c-30 -22 -44 -25 -117 -25 -67 0 -83 3 -83 15 0 8 -7 15
-16 15 -8 0 -12 -5 -9 -10 4 -6 2 -17 -4 -24 -8 -9 -7 -18 4 -32 24 -32 19
-79 -10 -94 -14 -7 -25 -18 -25 -23 0 -5 11 -2 25 7 13 9 29 16 35 16 6 0 10
-70 10 -204 0 -196 -1 -204 -20 -209 -11 -3 -19 -11 -18 -18 2 -8 -7 -15 -19
-17 -17 -2 -23 -10 -23 -29 l0 -25 -185 4 c-103 3 -188 1 -191 -3 -2 -5 -12
-5 -20 -2 -9 3 -91 6 -182 7 l-167 1 -3 38 c-3 31 -7 37 -27 37 -20 0 -24 -6
-27 -37 -3 -37 -4 -38 -45 -41 l-43 -3 0 40 c0 39 -2 41 -30 41 -28 0 -30 -2
-30 -41 l0 -40 -42 3 c-41 3 -42 4 -43 38 0 30 -4 35 -27 38 -24 3 -27 0 -30
-35 -3 -35 -6 -38 -37 -41 -58 -6 -58 11 0 87 30 39 63 73 74 77 15 5 4 11
-43 24 -35 10 -69 23 -75 29 -22 22 -43 9 -102 -61 -79 -94 -89 -112 -77 -148
8 -22 7 -30 -3 -34 -25 -9 -200 13 -299 39 -111 28 -116 26 -116 -35 0 -87
-72 -645 -100 -785 -18 -88 -139 -618 -179 -785 -12 -47 -21 -90 -21 -97 0
-16 107 -50 119 -37 13 13 110 271 179 474 51 152 118 378 152 518 l11 42 114
0 113 0 6 -37 c11 -73 17 -172 36 -602 11 -239 21 -436 23 -436 10 -8 117 -13
121 -6 21 33 59 678 54 914 l-3 167 783 0 782 0 0 -500 0 -500 -66 0 c-54 0
-65 3 -61 15 4 8 2 17 -3 20 -17 10 -19 -12 -3 -41 12 -23 14 -50 10 -124 l-5
-95 636 3 c463 2 638 5 643 14 7 11 5 36 -6 85 -7 32 -53 81 -96 103 -33 17
-59 20 -179 20 l-140 0 0 500 0 500 219 0 219 0 6 -24 c7 -30 30 -36 133 -36
l81 0 15 -42 c8 -24 35 -81 61 -128 101 -182 135 -279 151 -432 l6 -57 45 3
c25 2 47 5 49 7 14 14 27 168 27 309 0 123 -5 187 -19 253 l-19 87 77 0 c92 0
129 11 129 40 0 16 7 20 30 20 l29 0 -39 -63 c-44 -70 -98 -210 -130 -335 -25
-99 -52 -285 -44 -305 3 -9 22 -14 54 -16 l49 -1 48 97 c26 54 80 154 121 222
100 170 129 224 149 287 l17 54 55 0 c77 0 100 8 107 36 6 22 11 24 63 24 l57
0 18 -113 c17 -110 17 -126 -3 -528 -12 -228 -23 -426 -24 -441 -4 -32 2 -35
81 -44 l59 -6 28 178 c23 148 86 439 98 451 2 1 97 -103 212 -232 114 -129
211 -235 215 -235 4 0 33 21 64 46 l56 47 -18 31 c-11 17 -69 108 -129 201
-60 94 -129 204 -153 245 -50 88 -115 186 -143 217 -19 21 -19 22 7 65 63 109
261 626 245 642 -2 3 -29 -1 -59 -9 -130 -34 -416 -34 -570 -1 -36 8 -67 12
-68 11 -2 -2 10 -86 27 -187 17 -102 31 -190 31 -196 0 -9 -103 -12 -419 -12
l-420 0 -38 35 c-21 20 -54 40 -74 46 -32 10 -40 8 -72 -12 -20 -13 -41 -34
-46 -46 l-11 -23 -1469 0 -1469 0 -6 73 c-3 39 -8 140 -11 222 -3 83 -8 162
-11 178 l-6 27 1511 0 1510 0 6 21 c4 12 3 25 -2 30 -7 7 -237 15 -269 8 -5
-1 -11 -1 -14 0 -3 2 -80 3 -172 3 -129 1 -172 -2 -185 -13 -11 -9 -14 -10 -9
-1 8 13 -10 14 -169 12 -49 0 -112 0 -140 0 -27 1 -133 2 -235 3 -181 2 -185
2 -188 23 -2 12 -12 24 -23 27 -10 3 -19 12 -19 21 0 9 -7 16 -15 16 -13 0
-15 34 -15 246 0 150 4 253 10 265 10 18 7 19 -65 19 -41 0 -75 3 -75 7 0 4
12 17 28 30 37 30 24 29 -18 -2z m25 -86 l62 2 7 -32 c3 -17 6 -62 6 -100 0
-59 -3 -69 -17 -70 -17 -1 -17 -2 0 -6 15 -4 17 -19 17 -123 0 -65 -2 -124 -5
-132 -4 -10 -34 -13 -127 -11 -108 1 -123 4 -129 20 -13 33 -10 376 4 394 18
23 99 69 111 62 5 -4 37 -5 71 -4z m-1730 -900 c19 -118 35 -218 35 -223 0 -5
-25 -6 -55 -4 -58 5 -105 35 -105 68 0 13 37 191 76 359 3 13 7 21 9 19 3 -2
20 -101 40 -219z"/>
<path d="M3593 2493 c-7 -3 -13 -13 -13 -23 0 -22 19 -30 42 -18 29 14 2 52
-29 41z"/>
<path d="M2270 2810 c0 -5 5 -10 10 -10 6 0 10 5 10 10 0 6 -4 10 -10 10 -5 0
-10 -4 -10 -10z"/>
<path d="M2307 2804 c-11 -11 -8 -26 3 -19 6 3 10 -2 11 -12 0 -10 3 -13 5 -6
7 15 -10 46 -19 37z"/>
<path d="M1567 2777 c-3 -9 -2 -19 4 -23 15 -9 18 -2 9 20 -6 17 -7 18 -13 3z"/>
<path d="M1760 2735 c0 -15 21 -43 36 -49 15 -6 15 -4 3 11 -23 29 -39 45 -39
38z"/>
<path d="M2850 2704 c0 -8 5 -12 10 -9 6 3 10 10 10 16 0 5 -4 9 -10 9 -5 0
-10 -7 -10 -16z"/>
<path d="M2072 2670 c0 -14 2 -19 5 -12 2 6 2 18 0 25 -3 6 -5 1 -5 -13z"/>
<path d="M1640 2655 c13 -14 28 -25 34 -25 6 0 -1 11 -16 25 -15 14 -30 25
-34 25 -4 0 3 -11 16 -25z"/>
<path d="M1841 2644 c0 -11 3 -14 6 -6 3 7 2 16 -1 19 -3 4 -6 -2 -5 -13z"/>
<path d="M1865 2620 c3 -5 8 -10 11 -10 2 0 4 5 4 10 0 6 -5 10 -11 10 -5 0
-7 -4 -4 -10z"/>
<path d="M2518 2623 c7 -3 16 -2 19 1 4 3 -2 6 -13 5 -11 0 -14 -3 -6 -6z"/>
<path d="M2090 2600 c-8 -5 -11 -12 -7 -16 4 -4 13 -2 19 4 15 15 7 24 -12 12z"/>
<path d="M2185 2600 c3 -6 -1 -17 -10 -26 -9 -9 -13 -19 -9 -23 4 -3 9 0 11 7
3 6 11 12 18 12 8 0 13 9 12 20 -1 11 -7 20 -15 20 -7 0 -10 -5 -7 -10z"/>
<path d="M3219 2583 c-13 -17 -13 -17 6 -3 11 8 22 16 24 17 2 2 0 3 -6 3 -6
0 -17 -8 -24 -17z"/>
<path d="M2818 2583 c7 -3 16 -2 19 1 4 3 -2 6 -13 5 -11 0 -14 -3 -6 -6z"/>
<path d="M1930 2570 c0 -5 5 -10 11 -10 5 0 7 5 4 10 -3 6 -8 10 -11 10 -2 0
-4 -4 -4 -10z"/>
<path d="M1892 2543 c5 -25 28 -28 28 -4 0 12 -6 21 -16 21 -9 0 -14 -7 -12
-17z"/>
<path d="M1960 2550 c0 -5 5 -10 11 -10 5 0 7 5 4 10 -3 6 -8 10 -11 10 -2 0
-4 -4 -4 -10z"/>
<path d="M2122 2516 c-18 -6 -30 -14 -27 -18 6 -6 65 19 65 28 0 2 -1 4 -2 3
-2 0 -18 -6 -36 -13z"/>
<path d="M2450 2511 c0 -5 5 -11 10 -13 6 -2 14 -23 18 -47 6 -35 12 -45 30
-47 20 -4 22 0 22 40 0 25 5 48 10 51 6 3 10 11 10 17 0 6 -9 3 -19 -6 -18
-17 -22 -17 -43 -2 -25 18 -38 20 -38 7z"/>
<path d="M2600 2512 c0 -6 5 -14 10 -17 6 -3 10 -44 10 -91 0 -82 0 -84 24
-84 14 0 28 5 32 11 8 14 -16 31 -34 24 -9 -3 -12 3 -10 23 2 19 8 26 20 24
12 -2 18 8 23 40 3 24 9 52 11 63 3 12 2 15 -3 9 -16 -21 -46 -25 -64 -8 -11
10 -19 12 -19 6z"/>
<path d="M2638 2513 c7 -3 16 -2 19 1 4 3 -2 6 -13 5 -11 0 -14 -3 -6 -6z"/>
<path d="M2757 2475 c7 -70 10 -78 33 -72 17 4 20 0 20 -24 0 -26 -3 -29 -25
-25 -20 4 -25 1 -25 -15 0 -14 7 -19 30 -19 l30 0 0 90 c0 53 4 90 10 90 6 0
10 5 10 11 0 8 -5 8 -15 -1 -12 -10 -15 -10 -15 1 0 8 -6 5 -15 -7 -14 -19
-14 -19 -15 1 0 15 -2 17 -9 6 -7 -11 -9 -11 -14 0 -3 8 -3 -8 0 -36z"/>
<path d="M1830 2499 c0 -5 5 -7 10 -4 6 3 10 8 10 11 0 2 -4 4 -10 4 -5 0 -10
-5 -10 -11z"/>
<path d="M2070 2475 c7 -9 15 -13 17 -11 7 7 -7 26 -19 26 -6 0 -6 -6 2 -15z"/>
<path d="M1970 2436 c0 -2 9 -6 20 -9 11 -3 20 -1 20 4 0 5 -9 9 -20 9 -11 0
-20 -2 -20 -4z"/>
<path d="M2035 2410 c3 -5 10 -10 16 -10 5 0 9 5 9 10 0 6 -7 10 -16 10 -8 0
-12 -4 -9 -10z"/>
<path d="M2487 2367 c-13 -34 -8 -47 18 -47 18 0 25 5 25 20 0 13 -5 17 -14
14 -9 -3 -16 2 -18 13 -3 17 -4 17 -11 0z"/>
<path d="M2343 2353 c-26 -10 -13 -33 17 -33 32 0 42 23 14 34 -9 3 -16 6 -17
5 -1 0 -8 -3 -14 -6z"/>
<path d="M7000 2340 c-20 -6 -21 -8 -5 -8 11 0 29 3 40 8 25 11 -1 11 -35 0z"/>
<path d="M6911 2313 c-1 -25 6 -28 29 -13 13 8 13 10 -2 10 -9 0 -19 6 -21 13
-3 6 -6 2 -6 -10z"/>
<path d="M7008 2318 c-27 -6 -48 -13 -48 -17 0 -4 23 -3 50 3 28 5 50 14 50
18 0 4 -1 7 -2 7 -2 -1 -24 -6 -50 -11z"/>
<path d="M6973 2273 c-38 -5 -54 -22 -47 -50 5 -18 13 -20 70 -20 71 0 89 13
73 55 -9 23 -20 24 -96 15z"/>
<path d="M2620 2200 c0 -30 13 -40 25 -20 4 6 10 8 15 5 10 -6 22 23 14 36 -3
5 -16 9 -30 9 -20 0 -24 -5 -24 -30z"/>
<path d="M2572 1324 c-22 -15 -22 -18 -22 -279 0 -226 2 -266 16 -279 8 -9 20
-16 25 -16 6 0 8 -4 5 -9 -7 -10 19 -23 28 -14 9 9 168 3 186 -7 13 -8 13 -10
0 -10 -10 -1 -9 -4 5 -10 11 -5 16 -9 10 -9 -6 -1 -9 -87 -7 -242 2 -217 1
-244 -15 -261 -16 -17 -16 -18 0 -12 10 3 17 1 17 -5 0 -6 -16 -11 -35 -11
-19 0 -35 -4 -35 -10 0 -19 69 -11 90 10 19 19 20 33 20 280 0 247 -1 261 -20
280 -11 11 -17 20 -12 21 4 0 78 1 165 2 214 3 197 -24 197 303 0 241 -1 255
-20 274 -19 19 -33 20 -298 20 -235 0 -281 -2 -300 -16z m332 -88 c47 -20 76
-65 76 -119 0 -36 -11 -66 -50 -139 -28 -51 -59 -104 -70 -118 l-18 -24 -14
29 c-7 17 -15 32 -18 35 -5 5 -16 26 -71 129 -16 29 -29 67 -29 85 2 99 100
161 194 122z"/>
<path d="M2812 1160 c-26 -25 -27 -29 -6 -58 18 -27 55 -29 77 -4 22 24 21 38
-3 62 -25 25 -41 25 -68 0z"/>
<path d="M4954 1252 c-12 -9 -25 -26 -28 -38 -8 -28 27 -140 43 -136 7 1 10
-2 6 -8 -5 -8 56 -114 75 -130 4 -3 22 -27 40 -55 19 -27 42 -59 52 -69 10
-11 18 -23 18 -26 0 -4 9 -17 19 -29 16 -18 28 -22 71 -20 l51 3 -7 30 c-14
66 -67 214 -102 284 -57 114 -60 118 -107 166 -49 51 -92 60 -131 28z"/>
<path d="M2312 731 c-18 -11 8 -22 46 -20 24 1 23 3 -8 9 -22 5 13 7 92 6 69
0 124 2 121 7 -6 10 -235 9 -251 -2z"/>
<path d="M2268 723 c7 -3 16 -2 19 1 4 3 -2 6 -13 5 -11 0 -14 -3 -6 -6z"/>
<path d="M3535 720 c3 -5 11 -10 16 -10 6 0 7 5 4 10 -3 6 -11 10 -16 10 -6 0
-7 -4 -4 -10z"/>
<path d="M2398 713 c7 -3 16 -2 19 1 4 3 -2 6 -13 5 -11 0 -14 -3 -6 -6z"/>
<path d="M2493 713 c9 -2 25 -2 35 0 9 3 1 5 -18 5 -19 0 -27 -2 -17 -5z"/>
<path d="M2237 703 c-14 -13 -7 -23 16 -22 17 1 18 2 4 6 -9 2 -15 9 -12 14 7
10 1 12 -8 2z"/>
<path d="M2568 703 c6 -2 18 -2 25 0 6 3 1 5 -13 5 -14 0 -19 -2 -12 -5z"/>
<path d="M3558 693 c-2 -5 0 -48 3 -98 l5 -90 2 98 c2 87 -1 111 -10 90z"/>
<path d="M2502 660 c0 -14 2 -19 5 -12 2 6 2 18 0 25 -3 6 -5 1 -5 -13z"/>
<path d="M2526 665 c4 -8 8 -15 10 -15 2 0 4 7 4 15 0 8 -4 15 -10 15 -5 0 -7
-7 -4 -15z"/>
<path d="M2630 670 c-13 -9 -13 -10 0 -10 9 -1 5 -6 -10 -16 l-25 -15 24 7
c20 5 23 3 18 -10 -5 -12 1 -20 18 -28 14 -6 25 -14 25 -17 0 -3 9 -17 20 -31
19 -24 19 -24 13 -2 -3 12 -9 22 -14 22 -5 0 -9 5 -9 11 0 6 7 8 16 5 9 -3 12
-2 9 5 -4 6 -13 8 -20 5 -26 -10 -49 19 -42 52 7 34 2 38 -23 22z"/>
<path d="M2700 670 c0 -5 5 -10 10 -10 6 0 10 5 10 10 0 6 -4 10 -10 10 -5 0
-10 -4 -10 -10z"/>
<path d="M2445 642 c-11 -4 -33 -16 -49 -27 -16 -11 -36 -20 -44 -20 -9 0 -18
-7 -20 -15 -5 -13 -3 -13 11 -1 22 17 22 8 0 -27 -10 -16 -3 -12 17 12 19 21
56 49 84 62 47 22 48 31 1 16z"/>
<path d="M2558 643 c6 -2 18 -2 25 0 6 3 1 5 -13 5 -14 0 -19 -2 -12 -5z"/>
<path d="M2540 596 c0 -9 5 -16 10 -16 6 0 10 4 10 9 0 6 -4 13 -10 16 -5 3
-10 -1 -10 -9z"/>
<path d="M2478 571 c-22 -22 -24 -38 -3 -21 10 9 15 9 15 1 0 -6 3 -11 8 -11
4 0 7 11 7 25 0 29 -4 30 -27 6z"/>
<path d="M2403 565 c-8 -9 -9 -16 -3 -20 6 -3 10 -1 10 5 0 6 5 8 10 5 6 -3
10 1 10 9 0 20 -11 20 -27 1z"/>
<path d="M2541 554 c0 -11 3 -14 6 -6 3 7 2 16 -1 19 -3 4 -6 -2 -5 -13z"/>
<path d="M2565 560 c-3 -5 -1 -10 4 -10 6 0 11 5 11 10 0 6 -2 10 -4 10 -3 0
-8 -4 -11 -10z"/>
<path d="M2620 556 c0 -2 9 -6 20 -9 11 -3 18 -1 14 4 -5 9 -34 13 -34 5z"/>
<path d="M2553 513 c-15 -5 -18 -53 -4 -53 5 0 7 10 4 23 -4 18 -3 19 6 7 9
-12 11 -11 11 8 0 12 -1 22 -2 21 -2 0 -9 -3 -15 -6z"/>
<path d="M2585 505 c-3 -8 -7 -22 -10 -30 -3 -10 2 -15 15 -15 12 0 20 7 20
18 0 15 -2 15 -11 2 -8 -12 -9 -9 -5 13 7 28 -1 38 -9 12z"/>
<path d="M2650 510 c0 -5 5 -10 11 -10 5 0 7 5 4 10 -3 6 -8 10 -11 10 -2 0
-4 -4 -4 -10z"/>
<path d="M2715 510 c3 -5 8 -10 11 -10 2 0 4 5 4 10 0 6 -5 10 -11 10 -5 0 -7
-4 -4 -10z"/>
<path d="M2361 503 c-1 -6 -4 -20 -7 -30 -5 -17 -5 -17 6 0 6 10 9 23 6 30 -3
9 -5 9 -5 0z"/>
<path d="M2245 490 c-3 -6 1 -13 10 -16 19 -8 30 0 20 15 -8 14 -22 14 -30 1z"/>
<path d="M7000 473 c-12 -16 -35 -30 -52 -33 -20 -3 -34 -13 -39 -27 -7 -21
-5 -23 21 -23 38 0 39 -17 3 -23 l-28 -4 28 -2 c15 0 27 -5 27 -11 0 -5 -12
-11 -27 -11 -21 -1 -23 -2 -8 -6 40 -10 39 -23 -1 -23 -39 0 -40 -1 -67 -61
-31 -70 -33 -87 -12 -95 18 -7 66 27 150 106 33 32 80 76 105 98 l44 41 -29
33 c-71 77 -83 81 -115 41z"/>
<path d="M2441 478 c-1 -10 6 -18 14 -18 8 0 15 8 15 18 0 13 -2 14 -9 3 -7
-11 -9 -11 -14 0 -4 10 -6 9 -6 -3z"/>
<path d="M2486 475 c-3 -8 -1 -15 3 -15 5 0 11 7 15 15 3 8 1 15 -3 15 -5 0
-11 -7 -15 -15z"/>
<path d="M2641 474 c0 -11 3 -14 6 -6 3 7 2 16 -1 19 -3 4 -6 -2 -5 -13z"/>
<path d="M2690 479 c0 -6 -7 -9 -15 -5 -8 3 -15 1 -15 -4 0 -6 9 -10 20 -10
11 0 20 7 20 15 0 8 -2 15 -5 15 -3 0 -5 -5 -5 -11z"/>
<path d="M2747 473 c-11 -10 -8 -61 3 -68 6 -4 10 10 10 34 0 42 -2 46 -13 34z"/>
<path d="M3563 360 c0 -47 2 -66 4 -42 2 23 2 61 0 85 -2 23 -4 4 -4 -43z"/>
<path d="M2355 419 c-4 -6 -4 -13 -1 -16 3 -4 6 -1 6 7 0 9 3 10 14 1 10 -9
15 -8 20 4 6 18 -29 22 -39 4z"/>
<path d="M2445 420 c-3 -5 -1 -10 4 -10 6 0 11 5 11 10 0 6 -2 10 -4 10 -3 0
-8 -4 -11 -10z"/>
<path d="M2558 423 c-10 -2 -18 -13 -18 -24 0 -14 7 -19 28 -18 23 2 24 2 5 6
-26 5 -31 23 -8 23 8 0 15 5 15 10 0 6 -1 9 -2 9 -2 -1 -11 -3 -20 -6z"/>
<path d="M2601 414 c0 -11 3 -14 6 -6 3 7 2 16 -1 19 -3 4 -6 -2 -5 -13z"/>
<path d="M2641 403 c-1 -18 4 -23 24 -23 20 0 25 5 24 23 -1 16 -2 18 -6 5 -2
-10 -11 -18 -18 -18 -7 0 -16 8 -18 18 -4 13 -5 11 -6 -5z"/>
<path d="M2245 401 c-3 -5 -1 -12 5 -16 12 -7 30 2 30 16 0 12 -27 12 -35 0z"/>
<path d="M2461 391 c-8 -5 -9 -11 -3 -15 5 -3 12 1 16 9 6 17 6 18 -13 6z"/>
<path d="M2717 373 c-4 -3 -7 -11 -7 -17 0 -6 5 -5 12 2 6 6 9 14 7 17 -3 3
-9 2 -12 -2z"/>
<path d="M1150 330 c-11 -22 -18 -45 -15 -50 3 -6 1 -10 -4 -10 -6 0 -11 -8
-11 -18 0 -22 32 -38 193 -98 131 -49 145 -51 154 -28 4 12 -8 30 -42 60 -52
48 -56 49 -87 33 -27 -14 -38 -1 -14 17 11 8 15 14 10 14 -6 0 -15 -5 -22 -12
-13 -13 -17 -11 -26 18 -5 15 0 24 18 34 21 11 23 15 13 32 -9 15 -19 18 -45
14 -22 -3 -44 2 -67 15 l-34 20 -21 -41z"/>
<path d="M2221 323 c-1 -24 1 -43 3 -43 8 0 12 48 5 66 -5 13 -8 7 -8 -23z"/>
<path d="M2380 343 c0 -5 10 -18 23 -29 l22 -19 -20 25 c-11 14 -21 27 -22 29
-2 2 -3 0 -3 -6z"/>
<path d="M2410 347 c0 -10 22 -48 38 -65 20 -22 14 -3 -13 36 -14 20 -25 33
-25 29z"/>
<path d="M2487 320 c-3 -10 0 -24 7 -29 8 -7 11 -1 11 20 0 33 -10 39 -18 9z"/>
<path d="M2613 313 c-7 -15 -11 -28 -9 -31 6 -6 28 38 24 48 -2 5 -9 -3 -15
-17z"/>
<path d="M2325 304 c0 -20 2 -22 11 -9 15 20 28 19 19 -2 -5 -15 -4 -16 6 -5
10 9 10 15 1 24 -20 20 -37 17 -37 -8z"/>
<path d="M2060 290 c0 -5 -25 -10 -55 -10 -50 0 -55 -2 -61 -25 -3 -14 -3 -45
0 -70 6 -35 12 -46 29 -50 33 -9 324 1 382 13 l50 9 -45 3 c-38 2 -41 3 -20
10 19 6 21 8 6 9 -11 1 -34 12 -52 26 -32 25 -74 34 -74 16 0 -5 -8 -7 -19 -4
-11 3 -27 -4 -39 -17 -12 -13 -22 -17 -26 -11 -4 5 -2 12 4 16 5 3 10 11 10
18 0 6 -6 2 -14 -8 -13 -18 -15 -18 -30 -2 -13 13 -15 21 -6 37 6 11 16 20 23
20 7 0 3 7 -7 15 -23 17 -56 20 -56 5z"/>
<path d="M2540 285 c0 -8 2 -15 4 -15 2 0 6 7 10 15 3 8 1 15 -4 15 -6 0 -10
-7 -10 -15z"/>
<path d="M2664 288 c-5 -7 44 -3 52 5 3 3 -7 4 -21 3 -15 0 -29 -4 -31 -8z"/>
<path d="M6134 278 l-21 -10 23 -25 c22 -24 24 -51 3 -38 -5 4 -9 -2 -9 -12
-1 -16 -3 -15 -19 5 -24 27 -36 29 -19 2 17 -27 1 -38 -18 -12 -8 12 -20 22
-27 22 -23 0 -157 -72 -157 -84 0 -32 24 -36 222 -36 l198 0 0 74 c0 105 -2
107 -64 100 -41 -5 -55 -3 -65 10 -15 18 -18 18 -47 4z"/>
<path d="M2626 261 c-16 -17 -16 -19 0 -25 11 -4 15 -2 11 8 -3 7 0 19 6 25 6
6 9 11 6 11 -3 0 -14 -8 -23 -19z"/>
<path d="M2227 263 c-4 -3 -7 -11 -7 -17 0 -6 5 -5 12 2 6 6 9 14 7 17 -3 3
-9 2 -12 -2z"/>
<path d="M2407 259 c7 -7 15 -10 18 -7 3 3 -2 9 -12 12 -14 6 -15 5 -6 -5z"/>
<path d="M3540 251 c0 -6 5 -13 10 -16 6 -3 10 1 10 9 0 9 -4 16 -10 16 -5 0
-10 -4 -10 -9z"/>
<path d="M2468 233 c7 -3 16 -2 19 1 4 3 -2 6 -13 5 -11 0 -14 -3 -6 -6z"/>
<path d="M2550 228 c0 -10 4 -18 9 -18 5 0 18 -3 28 -6 15 -5 15 -3 -2 7 -11
7 -23 17 -27 23 -5 7 -8 4 -8 -6z"/>
<path d="M2410 210 c8 -5 20 -10 25 -10 6 0 3 5 -5 10 -8 5 -19 10 -25 10 -5
0 -3 -5 5 -10z"/>
<path d="M2465 210 c3 -5 8 -10 11 -10 2 0 4 5 4 10 0 6 -5 10 -11 10 -5 0 -7
-4 -4 -10z"/>
<path d="M2630 210 c19 -13 30 -13 30 0 0 6 -10 10 -22 10 -19 0 -20 -2 -8
-10z"/>
<path d="M2705 210 c-3 -5 -1 -10 4 -10 6 0 11 5 11 10 0 6 -2 10 -4 10 -3 0
-8 -4 -11 -10z"/>
<path d="M3550 185 c0 -7 -8 -19 -17 -24 -17 -10 -17 -10 -1 -11 10 0 22 9 28
19 13 25 13 31 0 31 -5 0 -10 -7 -10 -15z"/>
</g>
</svg>
